# AST/ASF file generated using VICON BodyLanguage
# -----------------------------------------------
:version 1.10
:name VICON
:units
  mass 1.0
  length 0.45
  angle deg
:documentation
   .ast/.asf automatically generated from VICON data using
   VICON BodyBuilder and BodyLanguage model FoxedUp or BRILLIANT.MOD
:root
   order TX TY TZ RX RY RZ
   axis XYZ
   position 0 0 0  
   orientation 0 0 0 
:bonedata
  begin
     id 1 
     name lhipjoint
     direction 0.716248 -0.617586 0.324924 
     length 2.63557 
     axis 0 0 0  XYZ
  end
  begin
     id 2 
     name lfemur
     direction 0.34202 -0.939693 0  
     length 7.01235  
     axis 0 0 20  XYZ
    dof rx ry rz
    limits (-160.0 20.0)
           (-70.0 70.0)
           (-60.0 70.0)
  end
  begin
     id 3 
     name ltibia
     direction 0.34202 -0.939693 0   
     length 8.14348   
     axis 0 0 20   XYZ
    dof rx
    limits (-10.0 170.0)
  end
  begin
     id 4 
     name lfoot
     direction 0.0982064 -0.26982 0.95789   
     length 1.99077   
     axis -90 7.62852e-016 20   XYZ
    dof rx rz
    limits (-45.0 90.0)
           (-70.0 20.0)
  end
  begin
     id 5 
     name ltoes
     direction 1.53511e-011 -4.21891e-011 1   
     length 0.99735   
     axis -90 7.62852e-016 20   XYZ
    dof rx
    limits (-90.0 20.0)
  end
  begin
     id 6 
     name rhipjoint
     direction -0.687828 -0.642391 0.337975   
     length 2.5338  
     axis 0 0 0  XYZ 
  end
  begin
     id 7 
     name rfemur
     direction -0.34202 -0.939693 0   
     length 6.90199   
     axis 0 0 -20   XYZ
    dof rx ry rz
    limits (-160.0 20.0)
           (-70.0 70.0)
           (-70.0 60.0)
  end
  begin
     id 8 
     name rtibia
     direction -0.34202 -0.939693 0   
     length 8.07725   
     axis 0 0 -20   XYZ
    dof rx
    limits (-10.0 170.0)
 end
 begin
     id 9 
     name rfoot
     direction -0.0912384 -0.250675 0.963762   
     length 2.11621  
     axis -90 -7.62852e-016 -20   XYZ
    dof rx rz
    limits (-45.0 90.0)
           (-20.0 70.0)
  end
  begin
     id 10 
     name rtoes
     direction -1.5359e-011 -4.21894e-011 1   
     length 1.06031   
     axis -90 -7.62852e-016 -20   XYZ
    dof rx
    limits (-90.0 20.0)
  end
  begin
     id 11 
     name lowerback
     direction -0.0403572 0.987953 -0.149396   
     length 2.05637   
     axis 0 0 0   XYZ
    dof rx ry rz
    limits (-20.0 45.0)
           (-30.0 30.0)
           (-30.0 30.0)
  end
  begin
     id 12 
     name upperback
     direction -0.00512151 0.997598 0.0690792   
     length 2.01086   
     axis 0 0 0   XYZ
    dof rx ry rz
    limits (-20.0 45.0)
           (-30.0 30.0)
           (-30.0 30.0)
  end
  begin
     id 13 
     name thorax
     direction 0.0136133 0.989392 0.14463   
     length 2.09035   
     axis 0 0 0   XYZ
    dof rx ry rz
    limits (-20.0 45.0)
           (-30.0 30.0)
           (-30.0 30.0)
  end
  begin
     id 14 
     name lowerneck
     direction 0.0250714 0.992811 0.11704   
     length 1.70806   
     axis 0 0 0   XYZ
    dof rx ry rz
    limits (-20.0 45.0)
           (-30.0 30.0)
           (-30.0 30.0)
  end
  begin
     id 15 
     name upperneck
     direction -0.0519205 0.998394 -0.0226787   
     length 1.6689   
     axis 0 0 0   XYZ
    dof rx ry rz
    limits (-20.0 45.0)
           (-30.0 30.0)
           (-30.0 30.0)
  end
  begin
     id 16
     name head
     direction -0.0201693 0.999547 -0.0223192  
     length 1.83412  
     axis 0 0 0   XYZ
    dof rx ry rz
    limits (-20.0 45.0)
           (-30.0 30.0)
           (-30.0 30.0)
  end
  begin
     id 17 
     name lclavicle
     direction 0.89585 0.444077 -0.0157448  
     length 3.39587  
     axis 0 0 0   XYZ
    dof ry rz
    limits (-20.0 10.0)
           (0.0 20.0)
  end
  begin
     id 18 
     name lhumerus
     direction 1 -4.48956e-011 1.99132e-028   
     length 5.79199   
     axis 180 -30 -90   XYZ
    dof rx ry rz
    limits (-60.0 90.0)
           (-90.0 90.0)
           (-90.0 90.0)
  end
  begin
     id 19
     name lradius
     direction 1 -4.48974e-011 8.72912e-028   
     length 3.49908   
     axis 180 -30 -90   XYZ
    dof rx
    limits (-10.0 170.0)
  end
  begin
     id 20
     name lwrist
     direction 1 -4.48994e-011 4.76442e-027   
     length 1.74954   
     axis -3.27502e-015 90 90   XYZ
    dof ry
    limits (-180.0 0.0)
 end
  begin
     id 21 
     name lhand
     direction 1 -4.48945e-011 9.531e-027   
     length 0.593861   
     axis -6.08098e-015 90 90   XYZ
    dof rx rz
    limits (-90.0 90.0)
           (-45.0 45.0)
  end
  begin
     id 22 
     name lfingers
     direction 1 -4.48945e-011 1.9062e-026   
     length 0.478786   
     axis -1.21619e-014 90 90   XYZ
    dof rx
    limits (0.0 90.0)
  end
  begin
     id 23
     name lthumb
     direction 0.707107 -6.34904e-011 0.707107   
     length 0.687444   
     axis -90 45 -9.86923e-015   XYZ
    dof rx rz
    limits (-45.0 45.0)
           (-45.0 45.0)
  end
  begin
     id 24 
     name rclavicle
     direction -0.940466 0.338394 0.0318182   
     length 3.51226  
     axis 0 0 0   XYZ 
    dof ry rz
    limits (-10.0 20.0)
           (-20.0 0.0)
  end
  begin
     id 25 
     name rhumerus
     direction -1 -4.48976e-011 2.0905e-027  
     length 5.73799   
     axis 180 30 90   XYZ
    dof rx ry rz
    limits (-90.0 60.0)
           (-90.0 90.0)
           (-90.0 90.0)
  end
  begin
     id 26 
     name rradius
     direction -1 -4.48968e-011 -9.39692e-029   
     length 3.57916   
     axis 180 30 90   XYZ
    dof rx
    limits (-10.0 170.0)
  end
  begin
     id 27 
     name rwrist
     direction -1 -4.48959e-011 4.7652e-027   
     length 1.78958   
     axis -3.27502e-015 -90 -90   XYZ
    dof ry
    limits (-180.0 0.0)
  end
  begin
     id 28
     name rhand
     direction -1 -4.49042e-011 9.5267e-027   
     length 0.615577   
     axis -6.08098e-015 -90 -90   XYZ
    dof rx rz
    limits (-90.0 90.0)
           (-45.0 45.0)
  end
  begin
     id 29
     name rfingers
     direction -1 -4.48935e-011 1.90629e-026   
     length 0.496294   
     axis -1.21619e-014 -90 -90   XYZ
    dof rx
    limits (0.0 90.0)
  end
  begin
     id 30
     name rthumb
     direction -0.707107 -6.34977e-011 0.707107   
     length 0.712582   
     axis -90 -45 9.86923e-015   XYZ
    dof rx rz
    limits (-45.0 45.0)
           (-45.0 45.0)
  end
:hierarchy
  begin
    root lhipjoint rhipjoint lowerback
    lhipjoint lfemur
    lfemur ltibia
    ltibia lfoot
    lfoot ltoes
    rhipjoint rfemur
    rfemur rtibia
    rtibia rfoot
    rfoot rtoes
    lowerback upperback
    upperback thorax
    thorax lowerneck lclavicle rclavicle
    lowerneck upperneck
    upperneck head
    lclavicle lhumerus
    lhumerus lradius
    lradius lwrist
    lwrist lhand lthumb
    lhand lfingers
    rclavicle rhumerus
    rhumerus rradius
    rradius rwrist
    rwrist rhand rthumb
    rhand rfingers
  end

#!OML:ASF H:\Terrain\Patient Classification 1\PaulMetrics\March17Take5\PaulMetrics.ASF
:FULLY-SPECIFIED
:DEGREES
1566
root 21.3358 17.6018 10.9441 -171.721 -16.938 -175.307
lowerback 5.52976 3.15114 -2.26464
upperback -3.01446 3.87994 -1.71588
thorax -6.27488 1.94742 -0.942795
lowerneck -5.9146 7.82401 4.04599
upperneck 1.80768 10.3545 -6.35318
head 2.20197 5.03294 -2.3175
rclavicle -5.53615e-014 2.8625e-014
rhumerus -35.5158 26.9684 -86.3481
rradius 55.1897
rwrist -14.3412
rhand -17.5524 -38.7091
rfingers 7.12502
rthumb 8.70229 291.49
lclavicle -5.53615e-014 2.8625e-014
lhumerus -49.7155 -12.5533 84.3698
lradius 30.4034
lwrist 11.3041
lhand -1.76266 -20.5733
lfingers 7.12502
lthumb 23.901 7.95934
rfemur -15.966 -5.52564 29.3164
rtibia 45.7127
rfoot -11.1515 -8.21396
rtoes -28.1687
lfemur -53.5434 1.65522 -22.3873
ltibia 75.9757
lfoot -1.48524 5.27082
ltoes -1.29703
1567
root 21.2908 17.7448 10.7645 -171.709 -16.3939 -175.422
lowerback 5.34104 3.38428 -2.51359
upperback -3.09686 4.16365 -1.8176
thorax -6.26692 2.09302 -0.933431
lowerneck -6.04259 7.78942 4.22811
upperneck 2.0794 10.3107 -6.49413
head 2.3352 5.00373 -2.38933
rclavicle 7.7526e-015 -1.11319e-014
rhumerus -35.5322 27.0967 -86.7703
rradius 56.3955
rwrist -15.0594
rhand -37.8713 -41.0802
rfingers 7.12502
rthumb -10.9152 289.224
lclavicle 7.7526e-015 -1.11319e-014
lhumerus -50.1091 -11.5216 83.4234
lradius 29.7536
lwrist 11.6867
lhand -1.52477 -20.0225
lfingers 7.12502
lthumb 24.1291 8.4801
rfemur -14.5 -5.02331 29.0066
rtibia 43.819
rfoot -8.83703 -8.34653
rtoes -28.2747
lfemur -53.0174 2.5792 -22.6767
ltibia 72.8701
lfoot -1.35618 4.65621
ltoes 0.912424
1568
root 21.2523 17.8726 10.5773 -172.233 -15.9329 -175.273
lowerback 5.45512 3.7151 -2.59555
upperback -3.07623 4.59286 -1.86512
thorax -6.31701 2.30664 -0.992363
lowerneck -5.8344 7.61786 4.61131
upperneck 2.23694 10.073 -6.55735
head 2.3654 4.89211 -2.49625
rclavicle -3.97569e-014 3.18055e-014
rhumerus -35.3855 26.734 -86.9725
rradius 57.6182
rwrist -14.834
rhand -20.7981 -46.5577
rfingers 7.12502
rthumb 5.56924 283.535
lclavicle -3.97569e-014 3.18055e-014
lhumerus -50.5274 -10.9397 82.6001
lradius 29.0697
lwrist 11.7463
lhand -1.56837 -19.8031
lfingers 7.12502
lthumb 24.0873 8.70506
rfemur -12.4949 -4.74334 28.9746
rtibia 41.8911
rfoot -6.62617 -8.25264
rtoes -26.982
lfemur -51.8888 3.51843 -22.5804
ltibia 69.6531
lfoot -0.843176 4.52252
ltoes 3.94425
1569
root 21.2077 17.9765 10.3934 -172.416 -15.7058 -175.152
lowerback 5.21209 3.89791 -2.61153
upperback -3.15264 4.84246 -1.85513
thorax -6.26292 2.43064 -0.986493
lowerneck -5.62961 7.49412 4.58494
upperneck 2.35359 9.91383 -6.32305
head 2.33967 4.8231 -2.42856
rclavicle 4.25399e-014 -4.6118e-014
rhumerus -35.2203 26.6131 -87.1172
rradius 58.5785
rwrist -14.8364
rhand -14.4187 -39.2506
rfingers 7.12502
rthumb 11.7253 291.098
lclavicle 4.25399e-014 -4.6118e-014
lhumerus -50.9256 -10.0801 81.7193
lradius 28.2457
lwrist 11.689
lhand -1.91586 -19.3608
lfingers 7.12502
lthumb 23.7541 9.19097
rfemur -10.9659 -4.81528 28.9479
rtibia 40.1809
rfoot -4.44153 -8.31312
rtoes -25.6711
lfemur -51.0545 4.07827 -22.4857
ltibia 66.3972
lfoot -0.448752 4.61279
ltoes 3.35079
1570
root 21.1575 18.0711 10.2164 -172.099 -15.8497 -175.342
lowerback 4.71983 3.7707 -2.76972
upperback -3.28874 4.66728 -1.8681
thorax -6.13557 2.34854 -0.863672
lowerneck -6.06933 7.55982 4.31888
upperneck 2.86839 10.0217 -6.13049
head 2.5687 4.86515 -2.29
rclavicle 2.13694e-014 5.56597e-014
rhumerus -35.2865 26.9981 -87.4982
rradius 59.5997
rwrist -15.1663
rhand -17.8256 -38.6463
rfingers 7.12502
rthumb 8.43861 291.542
lclavicle 2.13694e-014 5.56597e-014
lhumerus -51.182 -8.45994 80.4371
lradius 27.1959
lwrist 11.8949
lhand -2.37834 -19.7252
lfingers 7.12502
lthumb 23.3105 8.88354
rfemur -9.97627 -4.96393 28.6938
rtibia 38.6081
rfoot -2.29727 -8.77524
rtoes -24.3751
lfemur -50.7078 4.26091 -22.7611
ltibia 63.112
lfoot -0.310535 4.26336
ltoes -0.887579
1571
root 21.1041 18.1552 10.0409 -171.955 -16.3183 -175.554
lowerback 4.50643 3.55662 -2.81951
upperback -3.39781 4.3727 -1.91781
thorax -6.12521 2.20171 -0.847167
lowerneck -6.43712 7.64084 4.20019
upperneck 3.41428 10.1491 -6.04986
head 2.81521 4.91596 -2.21505
rclavicle 6.95746e-015 4.13472e-014
rhumerus -35.6589 27.2526 -87.9644
rradius 61.0976
rwrist -15.2949
rhand -20.234 -38.8696
rfingers 7.12502
rthumb 6.11394 291.239
lclavicle 6.95746e-015 4.13472e-014
lhumerus -51.4505 -6.92452 79.1012
lradius 26.2325
lwrist 11.6711
lhand -3.33694 -19.7904
lfingers 7.12502
lthumb 22.3906 8.93194
rfemur -8.90229 -5.15349 28.5079
rtibia 37.1979
rfoot -0.609579 -9.21892
rtoes -23.0553
lfemur -50.2309 4.2012 -23.0409
ltibia 59.8525
lfoot 0.965127 3.99337
ltoes -4.26291
